<svg xmlns="http://www.w3.org/2000/svg" viewBox="0 0 32 32">
  <rect width="32" height="32" rx="7" fill="#13171c"/>
  <g transform="translate(1.5 1) scale(0.072)">
    <g transform="translate(0, -30)">
      <path d="M 300 270 A 120 120 0 1 1 500 130" fill="none" stroke="#6cd59f" stroke-width="14" stroke-linecap="round"/>
      <path d="M 280 230 A 120 120 0 0 0 350 310" fill="none" stroke="#6cd59f" stroke-width="14" stroke-linecap="round"/>
      <polygon points="400,50 415,110 400,125 385,110" fill="#6cd59f"/>
      <polygon points="250,200 310,215 325,200 310,185" fill="#6cd59f"/>
      <polygon points="550,200 490,185 475,200 490,215" fill="#6cd59f"/>
      <polygon points="400,350 385,290 400,275 415,290" fill="#6cd59f"/>
      <rect x="540" y="80" width="8" height="12" rx="4" fill="#ff5757"/>
      <rect x="555" y="65" width="8" height="27" rx="4" fill="#ff5757"/>
      <rect x="570" y="50" width="8" height="42" rx="4" fill="#ff5757"/>
      <path d="M 235 305 L 330 210 L 380 260 L 520 120 L 520 135 L 380 275 L 330 225 L 235 320 Z" fill="#6cd59f"/>
      <polygon points="540,100 460,110 520,170" fill="#6cd59f"/>
    </g>
  </g>
</svg>
