<svg xmlns="http://www.w3.org/2000/svg" viewBox="0 0 800 600" role="img" aria-label="Trend Chasers — Track · Analyze · Improve">
  <rect width="100%" height="100%" fill="#13171c"/>

  <g transform="translate(0, -30)">
    <path d="M 300 270 A 120 120 0 1 1 500 130" fill="none" stroke="#6cd59f" stroke-width="14" stroke-linecap="round"/>
    <path d="M 280 230 A 120 120 0 0 0 350 310" fill="none" stroke="#6cd59f" stroke-width="14" stroke-linecap="round"/>

    <polygon points="400,50 415,110 400,125 385,110" fill="#6cd59f"/>
    <polygon points="250,200 310,215 325,200 310,185" fill="#6cd59f"/>
    <polygon points="550,200 490,185 475,200 490,215" fill="#6cd59f"/>
    <polygon points="400,350 385,290 400,275 415,290" fill="#6cd59f"/>

    <polygon points="294,94 325,125 310,140 295,125" fill="#6cd59f"/>
    <polygon points="506,94 475,125 490,140 505,125" fill="#6cd59f"/>
    <polygon points="310,280 340,250 355,265 325,295" fill="#6cd59f"/>

    <rect x="540" y="80" width="8" height="12" rx="4" fill="#ff5757"/>
    <rect x="555" y="65" width="8" height="27" rx="4" fill="#ff5757"/>
    <rect x="570" y="50" width="8" height="42" rx="4" fill="#ff5757"/>

    <path d="M 250 320 L 330 240 L 370 280 L 520 130 L 520 160 L 370 310 L 330 270 L 250 350 Z" fill="#4ba779"/>
    <path d="M 235 305 L 330 210 L 380 260 L 520 120 L 520 135 L 380 275 L 330 225 L 235 320 Z" fill="#6cd59f"/>

    <polygon points="540,100 460,110 520,170" fill="#6cd59f"/>
    <polygon points="530,115 470,125 515,170" fill="#4ba779"/>
  </g>

  <text x="400" y="420" font-family="'Montserrat', 'Arial Black', sans-serif" font-size="85" font-weight="900" fill="#6cd59f" text-anchor="middle" letter-spacing="3">TREND</text>
  <text x="400" y="500" font-family="'Montserrat', 'Arial Black', sans-serif" font-size="75" font-weight="900" fill="#ffffff" text-anchor="middle" letter-spacing="4">CHASERS</text>
  <text x="400" y="550" font-family="'Open Sans', 'Arial', sans-serif" font-size="24" font-weight="400" fill="#8e939d" text-anchor="middle" letter-spacing="1">Track &#8226; Analyze &#8226; Improve</text>
</svg>
