<svg xmlns="http://www.w3.org/2000/svg" viewBox="0 0 88 88" fill="none" role="img" aria-label="Trend Chasers">
  <circle cx="44" cy="44" r="36" stroke="#7ED9A4" stroke-width="2" opacity="0.28"/>
  <g fill="#7ED9A4">
    <path d="M44 6 L48 20 L40 20 Z"/>
    <path d="M44 82 L48 68 L40 68 Z"/>
    <path d="M6 44 L20 48 L20 40 Z"/>
    <path d="M82 44 L68 48 L68 40 Z"/>
    <path d="M16 16 L26 22 L22 28 Z"/>
    <path d="M72 72 L62 66 L66 60 Z"/>
    <path d="M72 16 L66 26 L60 22 Z"/>
    <path d="M16 72 L22 62 L28 66 Z"/>
  </g>
  <path
    d="M14 58 L24 48 L34 52 L44 38 L54 42 L64 28 L72 20"
    stroke="#7ED9A4"
    stroke-width="5.5"
    stroke-linecap="round"
    stroke-linejoin="round"
  />
  <path d="M72 20 L63 18 L72 10 Z" fill="#7ED9A4"/>
  <rect x="58" y="12" width="4.5" height="11" rx="1.2" fill="#F87171"/>
  <rect x="64.5" y="8" width="4.5" height="15" rx="1.2" fill="#F87171"/>
  <rect x="71" y="4" width="4.5" height="19" rx="1.2" fill="#F87171"/>
</svg>
